# xmcd CD database file
#
# Track frame offsets:
#	150
#	23062
#	57630
#	74267
#	93290
#	112128
#	149860
#
# Disc length: 2290 seconds
#
# Revision: 0
# Processed by: cddbd v1.4PL0 Copyright (c) Steve Scherf et al.
# Submitted via: CDex 1.51
#
DISCID=6b08f007
DTITLE=Hans Koller - Phoenix
DYEAR=1972
DGENRE=Jazz
TTITLE0=Nicolas 1/2
TTITLE1=Isus mirror
TTITLE2=CH and HC
TTITLE3=Phoenix
TTITLE4=Victor
TTITLE5=LWS
TTITLE6=Nicolas 3/4
EXTD=YEAR: 1972
EXTT0=
EXTT1=
EXTT2=
EXTT3=
EXTT4=
EXTT5=
EXTT6=
PLAYORDER=
